<?xml version="1.0" encoding="UTF-8"?>
<svg enable-background="new 0 0 40 40" version="1.1" viewBox="0 0 40 40" xml:space="preserve" xmlns="http://www.w3.org/2000/svg">
<style type="text/css">
	.st0{fill:url(#a);}
	.st1{fill:#FFFFFF;}
</style>
<linearGradient id="a" x1="-277.38" x2="-277.38" y1="406.6" y2="407.57" gradientTransform="matrix(40 0 0 -39.778 11115 16212)" gradientUnits="userSpaceOnUse">
	<stop stop-color="#0062E0" offset="0"/>
	<stop stop-color="#19AFFF" offset="1"/>
</linearGradient>
<path class="st0" d="M16.7,39.8C7.2,38.1,0,29.9,0,20C0,9,9,0,20,0s20,9,20,20c0,9.9-7.2,18.1-16.7,19.8l-1.1-0.9h-4.4L16.7,39.8z"/>
<path class="st1" d="m27.8 25.6 0.9-5.6h-5.3v-3.9c0-1.6 0.6-2.8 3-2.8h2.6v-5.1c-1.4-0.2-3-0.4-4.4-0.4-4.6 0-7.8 2.8-7.8 7.8v4.4h-5v5.6h5v14.1c1.1 0.2 2.2 0.3 3.3 0.3s2.2-0.1 3.3-0.3v-14.1h4.4z"/>
</svg>
