<?xml version="1.0" encoding="UTF-8"?>
<svg width="410.28mm" height="107.51mm" version="1.1" viewBox="0 0 410.28 107.51" xmlns="http://www.w3.org/2000/svg" xmlns:cc="http://creativecommons.org/ns#" xmlns:dc="http://purl.org/dc/elements/1.1/" xmlns:rdf="http://www.w3.org/1999/02/22-rdf-syntax-ns#" xmlns:xlink="http://www.w3.org/1999/xlink">
<defs>
<linearGradient id="e">
<stop stop-color="#ed6600" offset="0"/>
<stop stop-color="#f98200" offset="1"/>
</linearGradient>
<linearGradient id="f">
<stop stop-color="#ee0a3f" offset="0"/>
<stop stop-color="#ee0a3f" stop-opacity="0" offset="1"/>
</linearGradient>
<linearGradient id="c" x1="-.00059854" x2="1.0008" y1=".5" y2=".5" gradientUnits="userSpaceOnUse">
<stop stop-color="#ff9200" offset="1e-7"/>
<stop stop-color="#f36d00" offset=".29"/>
<stop stop-color="#f4680b" offset=".32"/>
<stop stop-color="#f83c72" offset=".57"/>
<stop stop-color="#fc1cbe" offset=".78"/>
<stop stop-color="#fe08ed" offset=".93"/>
<stop stop-color="#f0f" offset="1"/>
</linearGradient>
<linearGradient id="d" x1="-.00059854" x2="66.758" y1=".5" y2="-.017085" gradientUnits="userSpaceOnUse">
<stop stop-color="#ffb900" offset="1e-7"/>
<stop stop-color="#f38000" offset=".33755"/>
<stop stop-color="#f83c72" offset=".56729"/>
<stop stop-color="#fc1cbe" offset=".78"/>
<stop stop-color="#fe08ed" offset=".93"/>
<stop stop-color="#f0f" offset="1"/>
</linearGradient>
<linearGradient id="b" x1="18.754" x2="86.818" y1="49.006" y2="11.32" gradientUnits="userSpaceOnUse" xlink:href="#f"/>
<linearGradient id="a" x1="41.793" x2="75.037" y1="39.349" y2="12.569" gradientUnits="userSpaceOnUse" xlink:href="#e"/>
</defs>
<metadata>
<rdf:RDF>
<cc:Work rdf:about="">
<dc:format>image/svg+xml</dc:format>
<dc:type rdf:resource="http://purl.org/dc/dcmitype/StillImage"/>
<dc:title/>
</cc:Work>
</rdf:RDF>
</metadata>
<g transform="translate(805.61 100.4)">
<g transform="translate(-482.63 -315.59)">
<g transform="matrix(.43272 0 0 .43272 12.095 193.21)" fill-rule="evenodd" stroke-linecap="square" stroke-linejoin="bevel">
<g transform="matrix(.26297 0 0 .26297 -799.55 61.582)" fill="#000083">
<g transform="matrix(12.509 0 0 12.509 438.07 8.2982)">
<path d="m90.447 6.6244h6.5288v31.415h11.254v6.201h-17.756l-0.0273-37.616" fill="#000083" fill-rule="nonzero"/>
</g>
<g transform="matrix(12.509 0 0 12.509 438.07 8.2982)">
<path d="m123.35 16.049c3.459-0.0433 6.738 1.5334 8.865 4.2614v-3.7014h6.091v27.686h-6.091v-3.7014c-2.127 2.728-5.406 4.3047-8.865 4.2614-7.594 0-13.358-6.4878-13.358-14.41 0-7.922 5.764-14.396 13.358-14.396m1.107 5.5453c-4.931 0-8.196 3.8791-8.196 8.8508s3.319 8.8644 8.196 8.8644c4.876 0 8.195-3.8791 8.195-8.8644 0-4.9854-3.265-8.8508-8.195-8.8508" fill="#000083" fill-rule="nonzero"/>
</g>
<g transform="matrix(12.509 0 0 12.509 438.07 8.2982)">
<path d="m143.05 39.487 14.519-17.346h-14.301v-5.5317h22.168v4.8761l-14.464 17.278h14.792v5.5317h-22.714v-4.8078" fill="#000083" fill-rule="nonzero"/>
</g>
<g transform="matrix(12.509 0 0 12.509 438.07 8.2982)">
<path d="m181.25 16.049c3.458-0.0433 6.738 1.5334 8.864 4.2614v-3.7014h6.092v27.686h-6.092v-3.7014c-2.126 2.728-5.406 4.3047-8.864 4.2614-7.594 0-13.345-6.4878-13.345-14.41 0-7.922 5.751-14.396 13.345-14.396m1.106 5.5453c-4.931 0-8.195 3.8791-8.195 8.8508s3.319 8.8644 8.195 8.8644 8.195-3.8791 8.195-8.8644c0-4.9854-3.264-8.8508-8.195-8.8508" fill="#000083" fill-rule="nonzero"/>
</g>
<g transform="matrix(12.509 0 0 12.509 438.07 8.2982)">
<path d="m213.61 16.049c3.455-0.0454 6.731 1.5322 8.851 4.2614v-15.912h6.091v39.897h-6.091v-3.7014c-2.12 2.7292-5.396 4.3068-8.851 4.2614-7.594 0-13.358-6.4878-13.358-14.41 0-7.922 5.764-14.396 13.358-14.396m1.106 5.5453c-4.931 0-8.195 3.8791-8.195 8.8508s3.333 8.8644 8.195 8.8644c4.863 0 8.195-3.8791 8.195-8.8644 0-4.9854-3.264-8.8508-8.195-8.8508" fill="#000083" fill-rule="nonzero"/>
</g>
<g transform="matrix(12.509 0 0 12.509 438.07 8.2982)">
<path d="m245.95 16.049c3.455-0.0454 6.732 1.5322 8.851 4.2614v-3.7014h6.078v27.686h-6.105v-3.7014c-2.12 2.7292-5.396 4.3068-8.851 4.2614-7.594 0-13.358-6.4878-13.358-14.41 0-7.922 5.791-14.396 13.385-14.396m1.107 5.5453c-4.931 0-8.196 3.8791-8.196 8.8508s3.333 8.8644 8.196 8.8644c4.862 0 8.195-3.8791 8.195-8.8644 0-4.9854-3.265-8.8508-8.195-8.8508" fill="#000083" fill-rule="nonzero"/>
</g>
</g>
<g transform="matrix(1.3719 0 0 1.3719 169.49 -38.494)">
<g transform="matrix(3.3097 0 0 3.3097 -688.03 65.089)" fill="url(#c)">
<path d="m33.737 54.716c-0.4785 0.0033-0.9495-0.1192-1.3659-0.3551-3.5648-2.0625-29.967-18.617-30.964-19.122-0.7588-0.3541-1.277-1.0795-1.3659-1.9122v-23.22c-0.019635-0.86672 0.40884-1.6824 1.1337-2.158l0.19122-0.10927c2.5542-1.5844 11.104-6.802 12.457-7.5532 0.3103-0.18414 0.6637-0.28308 1.0244-0.28683 0.3382 0.0038266 0.6706 0.088101 0.9698 0.24585 0 0 11.965 7.799 13.795 8.4956 1.2842 0.59 2.6845 0.88406 4.0976 0.86049 1.6012 0.03347 3.1834-0.35265 4.5892-1.12 1.7893-0.94244 13.222-8.1951 13.344-8.1951 0.2882-0.17409 0.6194-0.26398 0.9561-0.25951 0.3611 0.0017672 0.7149 0.10085 1.0244 0.28683 1.5571 0.86048 12.156 7.3483 12.607 7.6351 0.7455 0.44975 1.1974 1.2602 1.1883 2.1307v23.22c-0.0836 0.8347-0.6034 1.5624-1.3658 1.9122-0.9971 0.5463-27.317 17.1-30.95 19.122-0.4136 0.2455-0.8848 0.3774-1.3658 0.3824" fill="url(#d)" fill-rule="nonzero"/>
</g>
<g transform="matrix(3.3097 0 0 3.3097 -688.03 65.089)" fill="url(#b)">
<path d="m33.6 54.716 0.1366-1e-4c0.4785 0.0033 0.9495-0.1192 1.3658-0.3551 3.5649-2.0625 29.953-18.617 30.95-19.122 0.7624-0.3498 1.2822-1.0775 1.3658-1.9122v-23.22c0.0044-0.39307-0.0845-0.78159-0.2595-1.1336l-33.559 18.425v27.317" fill="url(#b)" fill-rule="nonzero"/>
</g>
<g transform="matrix(-3.2745 0 0 3.2745 -467.19 65.934)" fill="url(#a)">
<path d="m33.6 54.716 0.1366-1e-4c0.4785 0.0033 0.9495-0.1192 1.3658-0.3551 3.5649-2.0625 29.953-18.617 30.95-19.122 0.7624-0.3498 1.2822-1.0775 1.3658-1.9122v-23.22c0.0044-0.39307-0.0845-0.78159-0.2595-1.1336l-33.559 18.425v27.317" fill="url(#a)" fill-rule="nonzero"/>
</g>
</g>
</g>
</g>
</g>
</svg>
