<svg id="Layer_1" data-name="Layer 1" xmlns="http://www.w3.org/2000/svg" viewBox="0 0 995.63 253.9"><title>logo</title><path d="M4,475.58q0-47.48,0-95C4,374,4,374,10.69,374c9.16,0,18.33.19,27.49-.07,4.47-.13,5.82,1.71,5.81,5.88-.1,23.77,0,47.54-.05,71.32,0,1.5,0,3,0,4.5,0,1,0,2.18,1.09,2.59,1.24.47,1.58-.79,2.18-1.52,6.07-7.27,12.21-14.49,18.23-21.8q23.93-29,47.77-58.16a7.37,7.37,0,0,1,6.13-2.72q21.74,0,43.49,0c1.14,0,2.54-.28,3.21.87.94,1.6-.77,2.37-1.52,3.27q-12.6,15.13-25.32,30.15-18.17,21.51-36.4,43c-3.34,3.93-6.61,7.93-10.21,11.6-3.35,3.41-3.61,6.2-.61,10.24,17.06,22.94,33.86,46.07,50.72,69.15q11.18,15.3,22.25,30.67c.69,1,2.27,1.94,1.35,3.42-.7,1.11-2.14.62-3.26.63-13.66,0-27.32-.06-41,.07-3.25,0-5.21-1.4-7-3.86Q90.56,539.53,66,505.94c-.78-1.07-1.74-2-2.44-3.15-1.3-2.07-2.77-2.37-4.35-.48-4.69,5.6-9.31,11.27-14,16.89C43.76,520.92,44,523,44,524.93c-.05,15.61-.19,31.23-.05,46.84,0,3.88-1.18,5.35-5.14,5.27-9.66-.2-19.33-.26-29,0-4.61.14-6-1.4-6-6,.17-31.82.09-63.65.09-95.47Z" transform="translate(-3.84 -373.88)" style="fill:#95d3f2"/><path d="M810.44,432c5.17,0,10.33.11,15.5,0,2.89-.09,4.56.81,5.52,3.75C838.57,457.5,845.82,479.26,853,501c.55,1.67.59,4.22,2.65,4.22,1.69,0,1.89-2.46,2.37-4,6.39-20.81,12.89-41.59,19-62.47,1.52-5.16,3.93-7.37,9.5-6.91a159.82,159.82,0,0,0,19,0c3.41-.13,5.12,1.08,6.12,4.35q9.6,31.21,19.49,62.34c.76,2.41.67,6.59,3.12,6.66,2.71.07,2.7-4.06,3.51-6.48q10.3-31,20.43-62.08c1-3.14,2.61-4.9,6.44-4.79,10.16.29,20.33.16,30.49,0,3.7,0,5.22.72,3.76,4.91C984,479.59,969.38,522.4,954.45,565.11c-4.25,12.16-4.54,12-17.58,12-5,0-10-.16-15,0-3.26.13-4.84-1.3-5.75-4.26-6-19.55-12.09-39.06-18.1-58.6-.77-2.49-1.3-6.6-3.28-6.57-2.74,0-2.49,4.18-3.24,6.55-6.11,19.17-12.16,38.36-17.9,57.64-1.25,4.22-3.35,5.43-7.46,5.28-7.32-.27-14.66-.24-22-.06-3.44.08-5.08-1.4-6.15-4.51q-17.43-51-35-101.86c-3.9-11.32-7.84-22.64-11.93-33.89-1.3-3.59-1-5.2,3.38-5C799.76,432.21,805.11,432,810.44,432Z" transform="translate(-3.84 -373.88)" style="fill:#90bafb"/><path d="M183.95,538.39c.64-12.6-1-27.21,1.86-41.79,4.38-22.46,16.42-39.72,34.71-52.73,12.52-8.91,26.52-14.33,42.15-15,4-.17,5.63.78,5.5,5.12-.29,9.48-.22,19,0,28.47.09,3.9-1.45,5.2-5.16,5.54-21.27,2-38.56,20.33-40.16,41.59-1.41,18.63-.51,37.26-.65,55.88-.09,11.6.26,11.59-11.45,11.57-7.16,0-14.33-.19-21.48.09-4,.15-5.54-1-5.42-5.29C184.14,561.37,183.95,550.87,183.95,538.39Z" transform="translate(-3.84 -373.88)" style="fill:#94cef4"/><path d="M604.32,488C595.74,449.33,558,425,519,432.11c-20.89,3.8-37.18,14.66-48.94,32.32C461.67,477,458.4,491.13,458.19,506c-.24,17.32-.06,34.65-.06,52s.15,34.65-.1,52c-.06,4.42,1.38,6.68,5.55,8,8.72,2.73,17.33,5.84,26,8.75,6.53,2.19,7.44,1.53,7.32-5.62-.21-13.14-.6-26.27-.76-39.41-.13-11.16.09-11.45,10.32-7.25,27.64,11.35,63.5,1.35,82-21C604.54,533.88,609.63,512,604.32,488ZM532.7,540.83c-19.5.45-35.64-15.78-35.77-35.19a35.38,35.38,0,1,1,70.76.08C567.76,524.65,552.66,540.36,532.7,540.83Z" transform="translate(-3.84 -373.88)" style="fill:#92c4f7"/><path d="M771.91,504.5h0c0-22.5-.11-45,.09-67.5,0-4.85-1.6-6.38-6.37-6.21-9,.32-18,.18-27,.05-3.15,0-5.21.44-4.8,4.29.33,3.08-1,3.94-3.86,2.45a31.74,31.74,0,0,0-4.17-1.65c-28.64-10.23-54.67-5.2-77,15-17.7,16-24.78,36.78-23,60.68,1.8,23.58,13,42,32,55,21.68,14.8,45.51,16.36,70.05,7.24,2.65-1,5.48-3.56,6.42,1.94.33,1.92,2.86,1.22,4.42,1.23,9.17.08,18.34-.11,27.5.15,4.3.12,5.8-1.21,5.76-5.68C771.8,549.17,771.91,526.83,771.91,504.5Zm-71.45,36.09C678.4,541,664.16,524,664,505c-.07-19.41,15.9-35,35.86-35.09A35,35,0,0,1,735,505.12C734.76,526.22,719.06,540.28,700.46,540.59Z" transform="translate(-3.84 -373.88)" style="fill:#91bff9"/><path d="M424.06,453.93c0-6.33,0-12.66,0-19,0-2.15-.07-4-3-4-10.5,0-21,0-31.49,0-2.55,0-3.94,1.36-3.32,3.77,1.19,4.65-.89,3.84-3.77,2.66-14-5.74-28.4-8.34-43.39-5.28-37.08,7.57-60.45,36.72-60.75,73.12a70.58,70.58,0,0,0,17,47.35c13.83,16.3,31.31,25.4,52.79,26.5a75.45,75.45,0,0,0,34.59-6c1.23-.54,3-1.87,3.32.86.36,3.13,2.59,3,4.78,3,9.33,0,18.67-.17,28,.18,4.91.18,6.2-1.6,6.16-6.34C424.59,531.87,425.6,492.89,424.06,453.93Zm-70.94,86.68c-20.77.3-36.35-15.53-36.17-36.32.17-19,16.23-34.38,36.09-34.36a34.93,34.93,0,0,1,34.85,35C387.7,525.89,372.5,540.33,353.12,540.61Z" transform="translate(-3.84 -373.88)" style="fill:#93c9f6"/></svg>